HIERARCHY
ROOT Hips
{
	OFFSET	0.00	0.00	0.00
	CHANNELS 6 Xposition Yposition Zposition Zrotation Xrotation Yrotation
	JOINT Spine
	{
		OFFSET	 0.00	0.01	 0.00
		CHANNELS 3 Zrotation Xrotation Yrotation
		JOINT Spine1
		{
			OFFSET	 0.00	 2.45913012437421	 0.00
			CHANNELS 3 Zrotation Xrotation Yrotation
            JOINT Neck
            {
                OFFSET	 0.00	 2.48462964506057	 0.00
                CHANNELS 3 Zrotation Xrotation Yrotation
                JOINT Head
                {
                    OFFSET	 0.00	 0.927524780924562	 0.00
                    CHANNELS 3 Zrotation Xrotation Yrotation
                    End Site 
                    {
                        OFFSET	 0.00	 1.14999962169752	 0.00
                    }
                }
            }
			JOINT LeftShoulder
			{
				OFFSET	 0.00	 2.48462964506057	 0.00
				CHANNELS 3 Zrotation Xrotation Yrotation
				JOINT LeftUpArm
				{
					OFFSET	 0.00	 1.24881979654096	 0.00
					CHANNELS 3 Zrotation Xrotation Yrotation
					JOINT LeftForeArm
					{
						OFFSET	 0.00	2.59758046908119	 0.00
						CHANNELS 3 Zrotation Xrotation Yrotation
						JOINT LeftHand
						{
							OFFSET	 0.00	2.45542024364365	 0.00
							CHANNELS 3 Zrotation Xrotation Yrotation
							JOINT LeftHandThumb 
							{
								OFFSET	 0.00	0.00	 0.00
								CHANNELS 3 Zrotation Xrotation Yrotation
								End Site
								{
									OFFSET	 0.00	0.00	1.00000003353624
								}
							}
							JOINT L_Wrist_End 
							{
								OFFSET	 0.00	0.99999967115358	 0.00
								CHANNELS 3 Zrotation Xrotation Yrotation
								End Site 
								{
									OFFSET	 0.00	 0.00	 0.00
								}
							}
						}
					}
				}
			}
			JOINT RightShoulder
			{
				OFFSET	 0.00	 2.48462964506057	 0.00
				CHANNELS 3 Zrotation Xrotation Yrotation
				JOINT RightUpArm
				{
					OFFSET	 0.00	 1.24881979654096	 0.00
					CHANNELS 3 Zrotation Xrotation Yrotation
					JOINT RightForeArm
					{
						OFFSET	 0.00	2.59758046908119	 0.00
						CHANNELS 3 Zrotation Xrotation Yrotation
						JOINT RightHand
						{
							OFFSET	 0.00	2.45542024364365	 0.00
							CHANNELS 3 Zrotation Xrotation Yrotation
							JOINT RightHandThumb 
							{
								OFFSET	 0.00	0.00	 0.00
								CHANNELS 3 Zrotation Xrotation Yrotation
								End Site
								{
									OFFSET	 0.00	0.00	1.00000003353624
								}
							}
							JOINT R_Wrist_End 
							{
								OFFSET	 0.00	0.99999967115358	 0.00
								CHANNELS 3 Zrotation Xrotation Yrotation
								End Site 
								{
									OFFSET	 0.00	 0.00	 0.00
								}
							}
						}
					}
				}
			}
		}
	}
	JOINT LeftUpLeg
	{
		OFFSET	 1.2719394002717	 0.00	 0.00
		CHANNELS 3 Zrotation Xrotation Yrotation
		JOINT LeftLowLeg
		{
			OFFSET	 0.00	-4.3429100912261	 0.00
			CHANNELS 3 Zrotation Xrotation Yrotation
			JOINT LeftFoot
			{
				OFFSET	 0.00	-4.48767017425826	 0.00
				CHANNELS 3 Zrotation Xrotation Yrotation
				JOINT LeftToeBase
                {
                    OFFSET	 0.00	0.00	 1.51507020887566
                    CHANNELS 3 Zrotation Xrotation Yrotation
                    End Site 
                    {
                        OFFSET	 0.00	0.00	 0.75000010571191
                    }
                }
			}
		}
	}
	JOINT RightUpLeg
	{
		OFFSET	 -1.2719393604653	 0.00	 0.00
		CHANNELS 3 Zrotation Xrotation Yrotation
		JOINT RightLowLeg
		{
			OFFSET	 0.00	-4.3429100912261	 0.00
			CHANNELS 3 Zrotation Xrotation Yrotation
			JOINT RightFoot
			{
				OFFSET	 0.00	-4.48767017425826	 0.00
				CHANNELS 3 Zrotation Xrotation Yrotation
				JOINT RightToeBase
                {
                    OFFSET	 0.00	0.00	 1.51507020887566
                    CHANNELS 3 Zrotation Xrotation Yrotation
                    End Site 
                    {
                        OFFSET	 0.00	0.00	 0.749999965609858
                    }
                }   
			}
		}
	}
}
MOTION 
Frames:	18 
Frame Time: 0.02 
  -0.48692798614501953 2.1220399475097658 7.728270263671875 178.756 74.9631 -178.244 11.7354 12.4599 3.35961 -6.70507 42.4684 -0.98468 21.0156 49.4611 -0.1743 -69.4371 -78.431 293.49 -112.745804 11.8966 -6.69648 -16.3514 23.6309 -3.43187 0.0 33.0296 0.0 2.66799 -6.27678 -10.9075 0.0 0.0 0.0 0.0 0.0 0.0 116.9036 9.26964 3.30209 27.02 17.706 5.2145 0.0 49.6873 0.0 -23.8971 6.29446 3.06696 0.0 0.0 0.0 0.0 0.0 0.0 26.9566 -73.4616 32.769 0.0 71.9655 0.0 -4.04761 0.6774998 5.35366 0.0 -10.74323 0.0 -23.9279 -74.9729 -20.2606 0.0 77.344 0.0 23.3424 -1.9153996 -15.2162 0.0 -13.15177 0.0 
  -0.4826470184326172 2.1767900085449217 7.634180297851563 -179.867 77.2617 -179.579 11.9192 11.9539 3.24041 -7.24456 44.232 -0.813312 20.7379 48.4042 0.214347 -64.9398 -78.6524 297.961 -113.0676 11.2624 -6.20839 -16.4184 23.6951 -5.36192 0.0 34.5244 0.0 2.61503 -5.10671 -10.8467 0.0 0.0 0.0 0.0 0.0 0.0 117.1509 9.45276 3.37291 27.6818 18.136 4.2667 0.0 47.7664 0.0 -22.4943 5.71044 3.93531 0.0 0.0 0.0 0.0 0.0 0.0 26.3187 -72.7159 31.5374 0.0 73.4811 0.0 -3.98643 0.8429003 5.3748 0.0 -10.83429 0.0 -22.102 -73.9875 -18.564 0.0 78.5139 0.0 23.5463 -1.6825008 -15.1233 0.0 -13.55567 0.0 
  -0.473927001953125 2.224759979248047 7.551710205078125 -178.269 79.8434 -181.257 12.1516 11.5354 3.16099 -7.94285 46.1981 -0.584865 20.6043 46.9936 0.310843 -58.6516 -78.6194 304.355 -113.073 10.7957 -4.78277 -16.4442 23.7319 -7.98148 0.0 36.7082 0.0 4.09847 -4.01407 -10.1138 0.0 0.0 0.0 0.0 0.0 0.0 117.3132 9.60497 2.36519 28.0283 19.1827 4.18911 0.0 45.7151 0.0 -20.9633 5.16197 4.33997 0.0 0.0 0.0 0.0 0.0 0.0 24.9243 -71.5471 29.5084 0.0 74.8106 0.0 -4.04525 0.9427004 5.49975 0.0 -10.86893 0.0 -19.8792 -72.5895 -16.363 0.0 79.4902 0.0 23.7874 -1.4430008 -14.9586 0.0 -13.92099 0.0 
  -0.4628670120239258 2.269409942626953 7.4867401123046875 -175.885 82.1339 -183.825 12.5637 10.7461 3.17112 -9.09569 48.4451 -0.122779 19.6403 45.3552 1.40308 -51.6735 -78.4916 310.803 -111.441605 10.6036 -7.28364 -20.0989 22.1276 -7.73191 0.0 39.6974 0.0 5.92375 -3.15632 -8.55963 0.0 0.0 0.0 0.0 0.0 0.0 117.419205 9.43241 2.76594 29.0911 20.0743 2.94033 0.0 43.6274 0.0 -19.5468 4.86598 4.64802 0.0 0.0 0.0 0.0 0.0 0.0 24.0077 -70.3585 28.1031 0.0 75.8397 0.0 -4.07077 1.1155996 5.59575 0.0 -10.95153 0.0 -17.7698 -71.2302 -14.2306 0.0 80.1091 0.0 24.2715 -1.2299004 -14.728 0.0 -14.183806 0.0 
  -0.45308799743652345 2.2997000122070315 7.4429998779296875 -172.976 84.1659 -186.773 12.694 9.90068 3.0516 -9.67281 49.9859 0.212311 18.9299 45.1851 2.22081 -51.726 -78.6173 310.341 -113.4142 9.77485 -6.88411 -18.983 22.6627 -8.77296 0.0 42.1288 0.0 7.14073 -2.33626 -9.29666 0.0 0.0 0.0 0.0 0.0 0.0 117.682 9.91168 4.55595 30.2644 18.8626 0.906812 0.0 41.7959 0.0 -17.7028 4.95762 4.19472 0.0 0.0 0.0 0.0 0.0 0.0 22.6377 -69.1695 26.3516 0.0 76.5297 0.0 -4.16333 1.3570004 5.64856 0.0 -11.07541 0.0 -16.6541 -69.8239 -13.0969 0.0 80.6193 0.0 24.6962 -0.9488001 -14.4897 0.0 -14.587963 0.0 
  -0.44359100341796875 2.3271499633789063 7.395809936523437 -166.025 86.58 -193.861 12.5226 9.26785 2.81783 -9.85684 51.5289 0.484088 17.1556 44.7587 4.02694 -49.4355 -78.2127 311.641 -111.8353 9.76141 -9.35489 -23.4365 20.2105 -7.80375 0.0 45.798 0.0 10.0063 -2.15503 -10.1005 0.0 0.0 0.0 0.0 0.0 0.0 117.591 9.47308 2.87284 30.5072 20.4776 0.745619 0.0 39.7261 0.0 -16.8493 4.29597 4.23489 0.0 0.0 0.0 0.0 0.0 0.0 21.256 -67.5632 24.5625 0.0 77.3169 0.0 -4.18617 1.5630999 5.66643 0.0 -11.26198 0.0 -15.356 -68.1477 -11.6999 0.0 81.2217 0.0 25.0468 -0.45960045 -14.3617 0.0 -14.95148 0.0 
  -0.4366999816894531 2.349360046386719 7.363720092773438 -138.421 88.5584 -221.691 12.0714 8.91437 2.49245 -9.28046 52.069 0.599394 14.9117 45.6865 6.18313 -54.0047 -78.0086 306.063 -113.7842 9.23919 -8.35072 -23.1219 20.1056 -8.81932 0.0 48.7424 0.0 11.66 -1.95769 -10.657 0.0 0.0 0.0 0.0 0.0 0.0 117.1623 9.65895 3.18093 31.495 19.5123 -0.614774 0.0 38.3043 0.0 -15.7552 4.03063 2.58169 0.0 0.0 0.0 0.0 0.0 0.0 20.4513 -65.9526 23.4288 0.0 77.9259 0.0 -4.27392 1.8615999 5.62468 0.0 -11.468451 0.0 -13.7614 -66.4768 -9.92273 0.0 81.5649 0.0 25.6314 -0.1104002 -14.135 0.0 -15.235652 0.0 
  -0.4324649810791016 2.369290008544922 7.336580200195312 -44.7646 88.3639 -315.623 11.7045 8.63618 2.28919 -8.83864 52.4013 0.755372 12.8167 46.4998 8.22296 -57.0008 -77.681 302.202 -114.765396 8.64267 -7.49458 -24.0512 19.9342 -9.76938 0.0 51.7849 0.0 13.2834 -1.55807 -10.803 0.0 0.0 0.0 0.0 0.0 0.0 117.302795 9.38223 2.50027 31.6555 19.3908 -1.72289 0.0 36.9321 0.0 -15.4039 3.79828 1.29298 0.0 0.0 0.0 0.0 0.0 0.0 19.9589 -64.2536 22.6025 0.0 78.4736 0.0 -4.3229 2.1746998 5.6334 0.0 -11.65844 0.0 -11.9565 -64.6741 -7.93986 0.0 81.6618 0.0 26.5316 0.012700081 -13.9301 0.0 -15.469434 0.0 
  -0.4283729934692383 2.3895199584960936 7.309879760742188 -20.7983 86.5268 -339.71 11.4831 8.23689 2.16473 -8.73014 52.7239 0.781868 10.5988 46.5033 10.3992 -56.8433 -77.1572 301.469 -114.0539 8.57973 -9.10657 -27.3267 17.7254 -9.04661 0.0 55.586 0.0 14.6605 -1.53101 -10.2909 0.0 0.0 0.0 0.0 0.0 0.0 116.889 9.11379 3.29651 33.1705 18.286 -3.58268 0.0 36.0069 0.0 -15.4068 4.2771 0.274384 0.0 0.0 0.0 0.0 0.0 0.0 19.3409 -62.7203 21.8085 0.0 78.9566 0.0 -4.24928 2.6225996 5.63144 0.0 -11.80995 0.0 -10.9706 -63.0177 -6.75969 0.0 81.8994 0.0 26.878 0.26830006 -13.7362 0.0 -15.674537 0.0 
  -0.4239759826660156 2.400709991455078 7.288599853515625 -13.4334 84.5054 -347.136 11.5299 7.64967 2.09468 -9.17388 53.3941 0.621587 8.45993 45.7356 12.5252 -54.4134 -76.5088 303.092 -113.7218 7.81899 -9.56186 -29.1424 16.8979 -8.75694 0.0 58.7622 0.0 16.4535 -0.161301 -11.2966 0.0 0.0 0.0 0.0 0.0 0.0 116.962 9.09597 3.2008 34.084 17.5626 -4.41133 0.0 35.6591 0.0 -15.2221 4.5546 -0.199262 0.0 0.0 0.0 0.0 0.0 0.0 18.6196 -61.1161 20.9825 0.0 79.4192 0.0 -4.21106 3.0136003 5.69619 0.0 -11.79528 0.0 -10.3124 -61.3032 -5.9701 0.0 82.1723 0.0 26.9166 0.5479002 -13.7282 0.0 -15.840282 0.0 
  -0.42365699768066406 2.410090026855469 7.267650146484375 -10.7534 82.8351 -349.833 10.9243 7.03852 1.77926 -8.33253 53.3227 0.876215 6.61032 45.6528 14.0175 -56.3861 -75.9474 300.652 -114.6736 7.89731 -9.1952 -29.8485 16.1341 -8.3462 0.0 61.7707 0.0 18.9635 0.699374 -10.7504 0.0 0.0 0.0 0.0 0.0 0.0 117.0249 8.44077 3.06615 34.1784 16.6108 -4.84718 0.0 35.7517 0.0 -15.0916 4.72555 -0.650244 0.0 0.0 0.0 0.0 0.0 0.0 18.2773 -59.8629 20.5649 0.0 79.8765 0.0 -4.11194 3.3715 5.67216 0.0 -11.87152 0.0 -9.77014 -59.9439 -5.34011 0.0 82.4544 0.0 26.9969 0.7049999 -13.7209 0.0 -15.953837 0.0 
  -0.42628700256347657 2.4221800231933592 7.24676025390625 -9.81907 81.1797 -350.736 10.6541 6.43958 1.51583 -7.96967 53.4478 0.8668 4.60976 44.8766 15.8146 -56.5967 -75.4063 299.942 -115.168 7.47935 -9.14181 -30.4429 15.7545 -7.48158 0.0 64.6588 0.0 21.7291 1.37361 -10.1545 0.0 0.0 0.0 0.0 0.0 0.0 117.2313 7.94246 3.04974 34.4027 15.7571 -5.27855 0.0 36.3108 0.0 -15.7771 5.14194 0.142319 0.0 0.0 0.0 0.0 0.0 0.0 18.1772 -58.6961 20.3544 0.0 80.3355 0.0 -3.89857 3.8041 5.70126 0.0 -11.93858 0.0 -9.1445 -58.5573 -4.74713 0.0 82.6404 0.0 27.1375 0.7784996 -13.754 0.0 -15.993526 0.0 
  -0.4280030059814453 2.4376600646972655 7.224509887695312 -9.1344 79.8234 -351.209 10.341 5.6272 1.17367 -7.51433 53.4572 0.796426 2.86688 44.1674 17.3663 -56.8722 -74.9221 299.1 -115.588196 7.25091 -9.10416 -30.7704 15.4373 -6.28085 0.0 67.3487 0.0 24.6384 1.47844 -8.77077 0.0 0.0 0.0 0.0 0.0 0.0 117.4647 7.46372 3.18161 34.409 14.7013 -5.74525 0.0 37.3386 0.0 -16.8192 5.49733 1.98792 0.0 0.0 0.0 0.0 0.0 0.0 17.9014 -57.8314 20.0011 0.0 80.6572 0.0 -3.668 4.2275 5.6814 0.0 -12.11448 0.0 -9.00916 -57.4499 -4.65022 0.0 82.8678 0.0 27.2759 0.8675003 -13.7335 0.0 -15.9996 0.0 
  -0.4365800094604492 2.445469970703125 7.201599731445312 -9.33663 78.7803 -351.009 10.0447 4.34234 0.992606 -7.40368 53.7088 1.0199 1.65609 43.4072 18.4654 -56.4242 -74.5337 299.232 -115.7192 7.02406 -9.36327 -30.9289 15.1647 -4.56948 0.0 69.5318 0.0 27.1252 2.03281 -7.91949 0.0 0.0 0.0 0.0 0.0 0.0 117.651596 7.05793 3.43527 34.5576 13.7085 -5.87731 0.0 38.5556 0.0 -17.5752 5.81217 1.3552 0.0 0.0 0.0 0.0 0.0 0.0 18.4322 -57.2198 20.4583 0.0 81.1506 0.0 -3.40613 4.6112003 5.59427 0.0 -12.3245 0.0 -8.46883 -56.7249 -4.22407 0.0 83.1402 0.0 27.4826 0.9584999 -13.72 0.0 -15.954394 0.0 
  -0.44414199829101564 2.4596400451660156 7.176580200195312 -9.49423 77.8493 -350.662 9.69756 3.10708 0.640426 -7.04484 53.7969 1.03748 0.171956 42.9601 19.9024 -56.773 -74.2839 298.504 -115.8514 6.88239 -9.64885 -30.786 15.0337 -2.39672 0.0 71.38 0.0 29.5862 2.19794 -7.64817 0.0 0.0 0.0 0.0 0.0 0.0 117.6715 6.6985 4.2338 34.7821 12.4264 -6.35457 0.0 40.0876 0.0 -18.0304 5.56984 3.08341 0.0 0.0 0.0 0.0 0.0 0.0 18.7251 -56.8972 20.5991 0.0 81.6392 0.0 -3.24138 5.3048897 5.45132 0.0 -12.83135 0.0 -8.29334 -56.116 -4.18703 0.0 83.4282 0.0 27.7001 1.1427002 -13.6931 0.0 -15.97923 0.0 
  -0.45563899993896484 2.476390075683594 7.150449829101563 -9.73696 76.931 -350.262 9.24207 2.02185 0.241793 -6.58632 53.8617 1.01454 -0.791107 42.3402 20.77 -56.4406 -73.9588 299.056 -115.9523 6.81333 -10.0856 -30.3484 14.8787 -0.0376149 0.0 73.0599 0.0 30.9878 2.40746 -7.26942 0.0 0.0 0.0 0.0 0.0 0.0 117.6984 6.31842 4.6406 34.7222 11.6905 -6.71482 0.0 41.7969 0.0 -19.3543 5.76044 4.06716 0.0 0.0 0.0 0.0 0.0 0.0 19.1669 -56.6815 20.7984 0.0 82.1912 0.0 -3.16909 6.2267704 5.27048 0.0 -13.51567 0.0 -7.93883 -55.5476 -3.95185 0.0 83.6765 0.0 27.9161 1.3417997 -13.6638 0.0 -16.06009 0.0 
  -0.46738300323486326 2.4979400634765625 7.123469848632812 -10.048 76.2817 -350.049 8.92556 0.928669 0.146128 -6.58011 53.7841 1.08761 -1.54054 41.8598 21.6287 -56.0297 -73.9113 299.747 -115.7275 6.84063 -10.5781 -29.7343 14.646 2.43983 0.0 74.5944 0.0 31.8265 2.89496 -6.31234 0.0 0.0 0.0 0.0 0.0 0.0 117.7648 6.04564 5.11572 34.7163 11.0667 -7.27245 0.0 43.6283 0.0 -21.2737 5.8589 6.49107 0.0 0.0 0.0 0.0 0.0 0.0 20.1572 -56.7055 21.6198 0.0 82.8371 0.0 -3.26079 7.36318 4.99498 0.0 -14.255182 0.0 -7.2789 -55.352 -3.34052 0.0 83.9039 0.0 28.127 1.6449003 -13.7535 0.0 -16.17371 0.0 
  -0.4763869857788086 2.5239999389648435 7.0964599609375 -10.1662 75.5237 -350.124 8.73052 0.199313 0.16845 -6.73186 53.5997 1.05738 -1.91686 41.3158 22.1924 -55.3708 -73.9714 300.913 -115.361496 6.937 -10.9262 -28.8498 14.4598 4.84554 0.0 75.9458 0.0 32.1491 4.17249 -5.19839 0.0 0.0 0.0 0.0 0.0 0.0 117.8462 5.81268 5.64278 34.6258 10.632 -8.23216 0.0 45.6513 0.0 -22.8657 5.1284 6.72753 0.0 0.0 0.0 0.0 0.0 0.0 21.1503 -56.6716 22.3882 0.0 83.5006 0.0 -3.64844 8.69215 4.64331 0.0 -14.972933 0.0 -6.54484 -55.1101 -2.61452 0.0 84.0959 0.0 28.1001 2.1211996 -13.9332 0.0 -16.39831 0.0 
